<svg width="37" height="36" viewBox="0 0 37 36" fill="none" xmlns="http://www.w3.org/2000/svg">
<path d="M9.95996 6.47995C8.38076 6.47995 7.07996 7.78075 7.07996 9.35995V26.64C7.07996 28.2304 8.36956 29.52 9.95996 29.52H27.24C28.8304 29.52 30.12 28.2304 30.12 26.64V13.2C30.12 11.6096 28.8304 10.32 27.24 10.32H9.95996C9.43004 10.32 8.99996 9.88987 8.99996 9.35995C8.99996 8.8182 9.4182 8.39995 9.95996 8.39995H25.96C26.0872 8.40175 26.2135 8.37825 26.3315 8.33081C26.4496 8.28338 26.557 8.21295 26.6476 8.12363C26.7382 8.03431 26.8101 7.92787 26.8592 7.8105C26.9083 7.69313 26.9336 7.56718 26.9336 7.43995C26.9336 7.31273 26.9083 7.18677 26.8592 7.06941C26.8101 6.95204 26.7382 6.8456 26.6476 6.75628C26.557 6.66696 26.4496 6.59653 26.3315 6.54909C26.2135 6.50166 26.0872 6.47816 25.96 6.47995H9.95996ZM24.68 18C25.5638 18 26.28 18.7161 26.28 19.6C26.28 20.4838 25.5638 21.2 24.68 21.2C23.7961 21.2 23.08 20.4838 23.08 19.6C23.08 18.7161 23.7961 18 24.68 18Z" fill="#18212E"/>
</svg>
