<svg width="43" height="85" viewBox="0 0 43 85" fill="none" xmlns="http://www.w3.org/2000/svg">
<path opacity="0.4" d="M32.7314 31.0009C31.2873 31.0009 30.1591 31.5183 29.3928 32.0443C28.6266 32.5702 28.2211 33.0955 28.1656 33.1693C27.6526 33.8496 27.7943 34.8244 28.4782 35.3347C29.1639 35.8464 30.1498 35.707 30.6643 35.0262C30.6658 35.0237 30.6673 35.0212 30.6688 35.0186C30.6766 35.0078 31.3978 34.0977 32.7314 34.0977C33.704 34.0977 34.4876 34.875 34.4876 35.8397C34.4876 36.8044 33.704 37.5817 32.7314 37.5817H32.5363C31.6787 37.5817 30.9752 38.2794 30.9752 39.1301C30.9752 39.9808 31.6787 40.6786 32.5363 40.6786H32.9266C34.0236 40.6786 34.8779 41.475 34.8779 42.4205C34.8779 43.366 34.0236 44.1625 32.9266 44.1625C31.4678 44.1625 30.6455 43.2065 30.6292 43.1872C30.0941 42.5309 29.1126 42.4233 28.4446 42.9483L28.4431 42.9498C27.7717 43.4792 27.6587 44.4581 28.1916 45.1242L28.1931 45.1257C28.2836 45.2379 29.9424 47.2594 32.9266 47.2594C35.7122 47.2594 38 45.0939 38 42.4205C38 41.0461 37.3443 39.8453 36.3795 38.9653C37.1183 38.117 37.6097 37.0448 37.6097 35.8397C37.6097 33.1754 35.4175 31.0009 32.7314 31.0009ZM11.3751 31.0024C11.2548 31.009 11.1346 31.03 11.0169 31.0644H11.0154L7.11272 32.2257C6.29077 32.4701 5.81898 33.3392 6.06541 34.1537C6.31136 34.9676 7.18594 35.436 8.00911 35.1925L9.9025 34.6285V45.7094C9.9025 46.5601 10.6059 47.2579 11.4636 47.2579C12.3212 47.2579 13.0246 46.5601 13.0246 45.7094V32.5478C13.0246 32.0589 12.7912 31.5974 12.3965 31.3048H12.395C12.098 31.0867 11.7361 30.9825 11.3751 31.0024ZM20.4396 38.7415C17.6453 38.7415 15.3662 41.0022 15.3662 43.7739V44.161C15.3662 45.0117 16.0696 45.7094 16.9273 45.7094C17.7849 45.7094 18.4883 45.0117 18.4883 44.161V43.7739C18.4883 42.7034 19.3604 41.8384 20.4396 41.8384C21.5189 41.8384 22.391 42.7034 22.391 43.7739C22.391 44.997 21.6827 46.0603 20.6714 46.4368L20.3299 46.5623C19.3921 46.9025 18.1452 47.3493 17.13 48.3663C16.1144 49.3837 15.3662 50.9685 15.3662 53.4516C15.3662 54.3023 16.0696 55 16.9273 55H23.952C24.8097 55 25.5131 54.3023 25.5131 53.4516C25.5131 52.6009 24.8097 51.9031 23.952 51.9031H18.6895C18.8649 51.2032 19.1291 50.7114 19.5158 50.388C19.9887 49.9925 20.6393 49.7481 21.4046 49.4701L21.7674 49.337H21.769C24.0186 48.5004 25.5131 46.2613 25.5131 43.7739C25.5131 41.0022 23.234 38.7415 20.4396 38.7415Z" fill="#18212E"/>
</svg>
