<svg width="44" height="85" viewBox="0 0 44 85" fill="none" xmlns="http://www.w3.org/2000/svg">
<path opacity="0.4" d="M22.6667 31C19.226 31 16.4167 33.697 16.4167 37C16.4167 40.303 19.226 43 22.6667 43C26.1073 43 28.9167 40.303 28.9167 37C28.9167 33.697 26.1073 31 22.6667 31ZM15.4792 45.4C13.937 45.4 12.6667 46.6195 12.6667 48.1V48.8195C12.6667 50.584 13.8321 52.1668 15.6098 53.2551C17.3874 54.3434 19.8197 55 22.6667 55C25.5136 55 27.9459 54.3434 29.7235 53.2551C31.5012 52.1668 32.6667 50.584 32.6667 48.8195V48.1C32.6667 46.6195 31.3963 45.4 29.8542 45.4H15.4792Z" fill="#18212E"/>
</svg>
