<svg width="72" height="72" viewBox="0 0 72 72" fill="none" xmlns="http://www.w3.org/2000/svg">
<rect width="72" height="72" rx="8" fill="#ECF3FE"/>
<path d="M36.4583 20C29.0373 20 23 26.0373 23 33.4583C23 36.6535 24.1471 39.7545 26.2403 42.2047C26.4794 42.4762 32.12 48.8855 34.0042 50.6818C34.6921 51.3381 35.5748 51.6667 36.4583 51.6667C37.3418 51.6667 38.2245 51.3381 38.9133 50.6818C41.1038 48.5926 46.4531 42.4604 46.6875 42.1912C48.7695 39.7545 49.9167 36.6535 49.9167 33.4583C49.9167 26.0373 43.8794 20 36.4583 20ZM36.4583 37.4167C34.2725 37.4167 32.5 35.6441 32.5 33.4583C32.5 31.2725 34.2725 29.5 36.4583 29.5C38.6441 29.5 40.4167 31.2725 40.4167 33.4583C40.4167 35.6441 38.6441 37.4167 36.4583 37.4167Z" fill="#18212E"/>
</svg>
