<svg width="48" height="48" viewBox="0 0 48 48" fill="none" xmlns="http://www.w3.org/2000/svg">
<path d="M24 4C12.972 4 4 12.972 4 24C4 35.028 12.972 44 24 44C35.028 44 44 35.028 44 24C44 12.972 35.028 4 24 4ZM32.561 20.561L22.561 30.561C22.268 30.854 21.884 31 21.5 31C21.116 31 20.732 30.854 20.439 30.561L15.439 25.561C14.853 24.975 14.853 24.026 15.439 23.44C16.025 22.854 16.974 22.854 17.56 23.44L21.499 27.379L30.438 18.44C31.024 17.854 31.973 17.854 32.559 18.44C33.145 19.026 33.146 19.975 32.561 20.561Z" fill="#6CCC75"/>
</svg>
