<svg width="72" height="72" viewBox="0 0 72 72" fill="none" xmlns="http://www.w3.org/2000/svg">
<rect width="72" height="72" rx="8" fill="#ECF3FE"/>
<path d="M48.0833 41H41.4167C41.1875 41 41 40.8125 41 40.5833V37.6667H31V39.75C31 45.9533 36.0467 51 42.25 51H48.0833C49.6917 51 51 49.6917 51 48.0833V43.9167C51 42.3083 49.6917 41 48.0833 41ZM31 31.4167V35.1667H41V32.25C41 26.0467 35.9533 21 29.75 21H23.9167C22.3083 21 21 22.3083 21 23.9167V28.0833C21 29.6917 22.3083 31 23.9167 31H30.5833C30.8125 31 31 31.1875 31 31.4167Z" fill="#18212E"/>
</svg>
