<svg width="72" height="72" viewBox="0 0 72 72" fill="none" xmlns="http://www.w3.org/2000/svg">
<rect width="72" height="72" rx="8" fill="#ECF3FE"/>
<path d="M50.5 26.3542V46.1458C50.5 48.5446 48.5446 50.5 46.1458 50.5H41.7917V39.4167H44.6575C45.0612 39.4167 45.4017 39.1158 45.4492 38.72L45.7421 36.345C45.7738 36.1233 45.7025 35.8938 45.5521 35.7275C45.4017 35.5533 45.1879 35.4583 44.9583 35.4583H41.7917V32.6875C41.7917 31.8167 42.5042 31.1042 43.375 31.1042H44.9583C45.3938 31.1042 45.75 30.7479 45.75 30.3125V27.6367C45.75 27.2329 45.4333 26.8925 45.0296 26.8529C44.9821 26.845 43.8658 26.75 42.4487 26.75C38.9654 26.75 37.0417 28.8242 37.0417 32.5846V35.4583H33.875C33.4396 35.4583 33.0833 35.8146 33.0833 36.25V38.625C33.0833 39.0604 33.4396 39.4167 33.875 39.4167H37.0417V50.5H26.3542C23.9554 50.5 22 48.5446 22 46.1458V26.3542C22 23.9554 23.9554 22 26.3542 22H46.1458C48.5446 22 50.5 23.9554 50.5 26.3542Z" fill="#18212E"/>
</svg>
