<svg width="72" height="72" viewBox="0 0 72 72" fill="none" xmlns="http://www.w3.org/2000/svg">
<rect width="72" height="72" rx="8" fill="#ECF3FE"/>
<path d="M23.7785 21.0088C23.5034 21.0391 23.2398 21.1602 23.0331 21.3669L21.3664 23.0336C20.9523 23.4486 20.8805 24.0938 21.1955 24.5879L24.4084 29.6286C24.8818 30.3878 25.662 30.8803 26.5503 30.9812C26.662 30.9937 26.7748 31.0007 26.8856 31.0007C27.5214 31.0007 28.127 30.7845 28.6321 30.4001L34.7518 36.5199C33.84 38.144 34.0631 40.2421 35.4354 41.6289L43.6776 49.8256C44.4835 50.6372 45.5576 51.086 46.7017 51.0902H46.718C47.8563 51.0902 48.9272 50.6484 49.7356 49.8467C50.5464 49.0409 50.9961 47.9668 51.0002 46.8226C51.0044 45.6785 50.5642 44.6012 49.76 43.792L41.5259 35.6052C40.7201 34.791 39.6461 34.339 38.5002 34.334H38.4807C37.8034 34.334 37.1583 34.5072 36.5699 34.8028L30.3964 28.6293C30.8469 28.0353 31.0662 27.3011 30.9807 26.5476C30.879 25.6601 30.3862 24.8805 29.6379 24.4122L24.5875 21.196C24.3395 21.0389 24.0536 20.9785 23.7785 21.0088ZM42.7662 21.0153C41.9867 20.9691 41.1786 21.0263 40.3541 21.2025C36.8966 21.9417 34.1799 24.8048 33.6174 28.2956C33.5582 28.6631 33.5225 29.0253 33.5084 29.3845L36.9898 32.8659C37.479 32.7343 37.9765 32.6674 38.4807 32.6674C40.0982 32.6749 41.5917 33.3017 42.7108 34.4317L45.9628 37.6641C48.5553 36.4349 50.4874 33.9601 50.9091 31.0251C51.1116 29.6151 50.9707 28.2626 50.564 27.031C50.2774 26.1643 49.1509 25.9335 48.5051 26.5785L44.7877 30.2943C43.9252 31.1568 42.4408 31.2314 41.5992 30.348C41.215 29.9447 41.0035 29.4163 41.0035 28.8571C41.0035 28.2796 41.2283 27.738 41.6366 27.3288L45.4566 23.5088C46.1008 22.8647 45.8707 21.7399 45.0074 21.4499C44.2965 21.2112 43.5457 21.0616 42.7662 21.0153ZM30.9026 35.0274L22.2356 43.7383C21.4347 44.545 20.9961 45.6176 21.0002 46.7559C21.0044 47.8942 21.4517 48.9629 22.2584 49.7637C23.0617 50.562 24.1263 51.0007 25.2597 51.0007H25.2759C26.4143 50.9965 27.4821 50.5493 28.2837 49.7409L34.7242 43.2712L34.2603 42.8106C32.7161 41.2514 32.1904 38.9727 32.7987 36.9235L30.9026 35.0274Z" fill="#18212E"/>
</svg>
