<svg width="72" height="72" viewBox="0 0 72 72" fill="none" xmlns="http://www.w3.org/2000/svg">
<rect width="72" height="72" rx="8" fill="#ECF3FE"/>
<path d="M29.3458 42.2367L29.7333 43.9817H41.6L41.9875 42.2367C42.25 41.0558 42.8108 39.9433 43.6883 39.1108C45.9958 36.9233 47.3333 33.8683 47.3333 30.6483C47.3333 24.2167 42.0975 19.0025 35.6667 19C29.2358 19.0025 24 24.2167 24 30.6483C24 33.8683 25.3375 36.9233 27.6442 39.1108C28.5225 39.9433 29.0833 41.0558 29.3458 42.2367ZM30.2892 46.4817L31.0775 50.0308C31.3742 51.3658 32.5583 52.315 33.925 52.315H37.4083C38.775 52.315 39.9592 51.3658 40.2558 50.0308L41.0442 46.4817H30.2892Z" fill="#18212E"/>
</svg>
