<svg width="72" height="72" viewBox="0 0 72 72" fill="none" xmlns="http://www.w3.org/2000/svg">
<rect width="72" height="72" rx="8" fill="#ECF3FE"/>
<path d="M30.1042 21C25.0842 21 21 25.0842 21 30.1042V41.9792C21 46.9991 25.0842 51.0833 30.1042 51.0833H41.9792C46.9991 51.0833 51.0833 46.9991 51.0833 41.9792V30.1042C51.0833 25.0842 46.9991 21 41.9792 21H30.1042ZM43.9583 26.5417C44.8331 26.5417 45.5417 27.2502 45.5417 28.125C45.5417 28.999 44.8331 29.7083 43.9583 29.7083C43.0835 29.7083 42.375 28.999 42.375 28.125C42.375 27.2502 43.0835 26.5417 43.9583 26.5417ZM36.0417 28.125C40.4069 28.125 43.9583 31.6764 43.9583 36.0417C43.9583 40.4069 40.4069 43.9583 36.0417 43.9583C31.6764 43.9583 28.125 40.4069 28.125 36.0417C28.125 31.6764 31.6764 28.125 36.0417 28.125ZM36.0417 30.5C35.3139 30.5 34.5933 30.6433 33.921 30.9218C33.2486 31.2003 32.6377 31.6085 32.1231 32.1231C31.6085 32.6377 31.2003 33.2486 30.9218 33.921C30.6433 34.5933 30.5 35.3139 30.5 36.0417C30.5 36.7694 30.6433 37.49 30.9218 38.1624C31.2003 38.8347 31.6085 39.4456 32.1231 39.9602C32.6377 40.4748 33.2486 40.883 33.921 41.1615C34.5933 41.44 35.3139 41.5833 36.0417 41.5833C36.7694 41.5833 37.49 41.44 38.1624 41.1615C38.8347 40.883 39.4456 40.4748 39.9602 39.9602C40.4748 39.4456 40.883 38.8347 41.1615 38.1624C41.44 37.49 41.5833 36.7694 41.5833 36.0417C41.5833 35.3139 41.44 34.5933 41.1615 33.921C40.883 33.2486 40.4748 32.6377 39.9602 32.1231C39.4456 31.6085 38.8347 31.2003 38.1624 30.9218C37.49 30.6433 36.7694 30.5 36.0417 30.5Z" fill="#18212E"/>
</svg>
