<svg width="72" height="72" viewBox="0 0 72 72" fill="none" xmlns="http://www.w3.org/2000/svg">
<rect width="72" height="72" rx="8" fill="#ECF3FE"/>
<path d="M35.9236 21.0001C35.2956 21.0021 34.6924 21.0661 34.0307 21.184C33.5382 21.2706 33.1552 21.6631 33.0802 22.1573L32.8621 23.5896C32.7554 24.2937 32.3403 24.9012 31.7228 25.2579C31.107 25.6137 30.3728 25.6717 29.7078 25.4109L28.3683 24.8884C27.9016 24.7067 27.3683 24.8419 27.0467 25.2286C26.2033 26.2427 25.543 27.3869 25.0822 28.6319C24.908 29.1036 25.0559 29.6328 25.4484 29.947L26.5698 30.8454C27.1256 31.2896 27.4454 31.9542 27.4454 32.6667C27.4454 33.3792 27.1256 34.0422 26.5698 34.4864L25.4484 35.3848C25.0559 35.699 24.908 36.2283 25.0822 36.6999C25.5422 37.9449 26.2033 39.0891 27.0467 40.1032C27.3675 40.4899 27.9016 40.6284 28.3683 40.445L29.7078 39.9209C30.372 39.6609 31.107 39.7189 31.7228 40.0739C32.3403 40.4306 32.7546 41.0381 32.8621 41.7422L33.0802 43.1762C33.1552 43.6703 33.5391 44.0628 34.0307 44.1495C34.7132 44.2736 35.3568 44.3318 36.0001 44.3318C36.6435 44.3318 37.2879 44.2728 37.9695 44.1511C38.462 44.0644 38.8434 43.6736 38.9184 43.1794L39.1365 41.7439H39.1381C39.2448 41.0397 39.66 40.4322 40.2775 40.0756C40.895 39.7197 41.6291 39.6642 42.2924 39.9242L43.632 40.4467C44.0986 40.6292 44.6319 40.4932 44.9536 40.1065C45.7969 39.0923 46.4573 37.9482 46.9181 36.7032C47.0923 36.2307 46.9444 35.7006 46.5519 35.3864L45.4288 34.488C44.873 34.0438 44.5548 33.3808 44.5548 32.6683C44.5548 31.9558 44.8738 31.2904 45.4305 30.8454L46.5519 29.9486C46.9444 29.6353 47.0915 29.1036 46.9165 28.6319C46.4565 27.3911 45.7937 26.2469 44.9487 25.2302C44.6279 24.8435 44.0946 24.71 43.6271 24.8917L42.2924 25.4125C41.6291 25.6733 40.895 25.6153 40.2775 25.2595C39.66 24.9028 39.244 24.2962 39.1365 23.5912L38.9184 22.1622C38.8434 21.6655 38.458 21.2739 37.963 21.1889C37.2043 21.0584 36.5517 20.998 35.9236 21.0001ZM35.9985 27.6651C36.6893 27.6651 37.2485 28.2251 37.2485 28.9151V33.3975L38.448 32.198C38.9364 31.7096 39.7273 31.7096 40.2156 32.198C40.704 32.6863 40.7048 33.4772 40.2173 33.9655L36.8839 37.2989C36.6398 37.543 36.3201 37.6651 36.0001 37.6651C35.6801 37.6651 35.3605 37.543 35.1163 37.2989L31.783 33.9655C31.2947 33.4772 31.2947 32.6863 31.783 32.198C32.2713 31.7096 33.0623 31.7096 33.5506 32.198L34.7485 33.3975V28.9151C34.7485 28.2251 35.3077 27.6651 35.9985 27.6651ZM22.2306 42.6472C21.8994 42.6524 21.5837 42.7888 21.353 43.0265C21.1223 43.2643 20.9954 43.5838 21.0001 43.9151V46.4151C21.0001 48.9316 23.067 50.9984 25.5835 50.9984H46.4168C48.9333 50.9984 51.0001 48.9316 51.0001 46.4151V43.9151C51.0025 43.7495 50.9719 43.585 50.9101 43.4313C50.8483 43.2776 50.7566 43.1377 50.6403 43.0197C50.524 42.9018 50.3854 42.8081 50.2326 42.7441C50.0798 42.6802 49.9158 42.6473 49.7501 42.6473C49.5845 42.6473 49.4205 42.6802 49.2676 42.7441C49.1148 42.8081 48.9762 42.9018 48.8599 43.0197C48.7436 43.1377 48.6519 43.2776 48.5902 43.4313C48.5284 43.585 48.4978 43.7495 48.5001 43.9151V46.4151C48.5001 47.5803 47.582 48.4984 46.4168 48.4984H25.5835C24.4183 48.4984 23.5001 47.5803 23.5001 46.4151V43.9151C23.5025 43.7478 23.4713 43.5817 23.4083 43.4267C23.3454 43.2717 23.2519 43.1309 23.1335 43.0126C23.0151 42.8944 22.8742 42.8011 22.7191 42.7383C22.564 42.6756 22.3979 42.6446 22.2306 42.6472Z" fill="#18212E"/>
</svg>
