<svg width="36" height="36" viewBox="0 0 36 36" fill="none" xmlns="http://www.w3.org/2000/svg">
<path d="M18.0003 5.19995C10.9463 5.19995 5.20032 10.9459 5.20032 18C5.20032 25.054 10.9463 30.8 18.0003 30.8C25.0543 30.8 30.8003 25.054 30.8003 18C30.8027 17.8303 30.7714 17.6619 30.7081 17.5045C30.6449 17.3471 30.551 17.2039 30.4319 17.0831C30.3128 16.9623 30.1709 16.8664 30.0144 16.8009C29.8579 16.7354 29.69 16.7017 29.5203 16.7017C29.3507 16.7017 29.1827 16.7354 29.0263 16.8009C28.8698 16.8664 28.7279 16.9623 28.6088 17.0831C28.4897 17.2039 28.3958 17.3471 28.3325 17.5045C28.2693 17.6619 28.2379 17.8303 28.2403 18C28.2403 23.6704 23.6708 28.24 18.0003 28.24C12.3299 28.24 7.76032 23.6704 7.76032 18C7.76032 12.3295 12.3299 7.75995 18.0003 7.75995C20.9344 7.75995 23.5676 8.99168 25.4316 10.96H23.7603C23.5907 10.9576 23.4223 10.9889 23.2649 11.0521C23.1075 11.1154 22.9642 11.2093 22.8435 11.3284C22.7227 11.4475 22.6267 11.5894 22.5613 11.7459C22.4958 11.9024 22.4621 12.0703 22.4621 12.24C22.4621 12.4096 22.4958 12.5775 22.5613 12.734C22.6267 12.8905 22.7227 13.0324 22.8435 13.1515C22.9642 13.2706 23.1075 13.3645 23.2649 13.4278C23.4223 13.491 23.5907 13.5224 23.7603 13.52H27.7178C27.9096 13.5639 28.1089 13.563 28.3003 13.5175C28.6288 13.502 28.9388 13.3607 29.166 13.1228C29.3931 12.885 29.52 12.5688 29.5203 12.24V7.75995C29.5227 7.58881 29.4907 7.41893 29.4262 7.26037C29.3617 7.10181 29.2661 6.95779 29.1451 6.83682C29.024 6.71585 28.8799 6.62039 28.7212 6.55609C28.5626 6.49179 28.3927 6.45995 28.2216 6.46245C27.8823 6.46742 27.5589 6.60688 27.3224 6.85017C27.0859 7.09346 26.9557 7.42069 26.9603 7.75995V8.8662C24.6487 6.59984 21.484 5.19995 18.0003 5.19995ZM17.9816 10.9425C17.6423 10.9474 17.3189 11.0869 17.0824 11.3302C16.8459 11.5735 16.7157 11.9007 16.7203 12.24V19.28C16.7204 19.6194 16.8552 19.945 17.0953 20.185C17.3353 20.425 17.6609 20.5599 18.0003 20.56H22.4803C22.6499 20.5624 22.8183 20.531 22.9757 20.4678C23.1331 20.4045 23.2764 20.3106 23.3972 20.1915C23.518 20.0724 23.6139 19.9305 23.6794 19.774C23.7448 19.6175 23.7785 19.4496 23.7785 19.28C23.7785 19.1103 23.7448 18.9424 23.6794 18.7859C23.6139 18.6294 23.518 18.4875 23.3972 18.3684C23.2764 18.2493 23.1331 18.1554 22.9757 18.0921C22.8183 18.0289 22.6499 17.9976 22.4803 18H19.2803V12.24C19.2827 12.0688 19.2507 11.8989 19.1862 11.7404C19.1217 11.5818 19.0261 11.4378 18.9051 11.3168C18.784 11.1958 18.6399 11.1004 18.4812 11.0361C18.3226 10.9718 18.1527 10.9399 17.9816 10.9425Z" fill="#18212E"/>
</svg>
