<svg width="43" height="85" viewBox="0 0 43 85" fill="none" xmlns="http://www.w3.org/2000/svg">
<g filter="url(#filter0_i_0_28)">
<path d="M9 28V54.8312H28.1577L29.1706 56L34 50.1649H31.093V44.9153H29.9302V35.912L22.0189 28H9ZM21.7907 29.1666L28.7674 36.166H21.7907V29.1666ZM14.9979 41.7027C15.6997 41.7027 16.2724 41.8317 16.6683 42.2085C17.0241 42.5456 17.202 43.0614 17.202 43.6359C17.202 44.3102 17.0144 44.7657 16.708 45.1226C16.3127 45.5887 15.6703 45.8176 15.1069 45.8176C14.9982 45.8176 14.9082 45.8167 14.8094 45.8062V48.415H13.7624V41.8314C14.0985 41.7521 14.5334 41.7027 14.9979 41.7027ZM19.2085 41.7027C19.9794 41.7027 20.5335 41.8906 20.9288 42.2575C21.473 42.7433 21.8089 43.6154 21.8089 44.954C21.8089 46.3918 21.4533 47.2944 20.9493 47.7896C20.5045 48.2457 19.852 48.464 18.9927 48.464C18.627 48.464 18.2613 48.4342 18.0241 48.3945V41.8314C18.3304 41.7522 18.7543 41.7027 19.2085 41.7027ZM22.6673 41.7323H25.4051V42.6539H23.7245V44.6476H25.2961V45.5305H23.7245V48.415H22.6673V41.7323ZM19.3765 42.5548C19.2678 42.5548 19.1589 42.5657 19.0699 42.5856V47.572C19.1589 47.5918 19.2574 47.5925 19.3266 47.5925C20.0574 47.5925 20.7199 46.9771 20.7199 44.9449C20.7199 43.4278 20.2957 42.5548 19.3765 42.5548ZM15.1751 42.5651C15.0268 42.5651 14.8984 42.5843 14.8094 42.614V44.9347C14.8885 44.9545 14.9585 44.954 15.0672 44.954C15.759 44.954 16.1437 44.4786 16.1437 43.7145C16.1437 43.0904 15.8867 42.5651 15.1751 42.5651ZM28.186 46.0819H29.9302V51.3314H31.6744L29.1706 54.2479L26.4419 51.3314H28.186V46.0819ZM24.1844 50.1637L24.1946 50.1649H24.1855L24.1844 50.1637Z" fill="#473A04"/>
</g>
<defs>
<filter id="filter0_i_0_28" x="9" y="28" width="25" height="28" filterUnits="userSpaceOnUse" color-interpolation-filters="sRGB">
<feFlood flood-opacity="0" result="BackgroundImageFix"/>
<feBlend mode="normal" in="SourceGraphic" in2="BackgroundImageFix" result="shape"/>
<feColorMatrix in="SourceAlpha" type="matrix" values="0 0 0 0 0 0 0 0 0 0 0 0 0 0 0 0 0 0 127 0" result="hardAlpha"/>
<feOffset/>
<feGaussianBlur stdDeviation="1"/>
<feComposite in2="hardAlpha" operator="arithmetic" k2="-1" k3="1"/>
<feColorMatrix type="matrix" values="0 0 0 0 0 0 0 0 0 0 0 0 0 0 0 0 0 0 1 0"/>
<feBlend mode="normal" in2="shape" result="effect1_innerShadow_0_28"/>
</filter>
</defs>
</svg>
