<svg width="37" height="39" viewBox="0 0 37 39" fill="none" xmlns="http://www.w3.org/2000/svg">
<path d="M18.275 8.13526e-05C17.3207 -0.00602976 16.3645 0.332151 15.5996 1.01571L14.7073 1.81258L13.5371 1.5539C11.5344 1.10679 9.53827 2.24435 8.89649 4.19279L8.52149 5.33168L7.37739 5.69105C5.41917 6.30794 4.25823 8.28807 4.676 10.297L4.92079 11.4706L4.11177 12.356C2.72599 13.8689 2.70993 16.1639 4.07704 17.6945L4.87392 18.5869L4.61524 19.757C4.30551 21.1533 4.77533 22.5341 5.74024 23.4671L0.790586 28.4167C0.628428 28.5789 0.510813 28.7801 0.449102 29.0009C0.387391 29.2217 0.383669 29.4548 0.438296 29.6775C0.492923 29.9001 0.604053 30.105 0.760952 30.2722C0.917851 30.4394 1.11522 30.5634 1.33399 30.632L6.55274 32.2709L7.98677 37.2622C8.0509 37.4851 8.17206 37.6875 8.33829 37.8492C8.50453 38.011 8.71008 38.1266 8.93465 38.1846C9.15923 38.2426 9.39505 38.2411 9.61884 38.1801C9.84263 38.1191 10.0466 38.0008 10.2107 37.8369L17.7073 30.3404C17.7495 30.2985 17.789 30.2538 17.8253 30.2067C17.9187 30.2133 18.0112 30.2327 18.1048 30.2327C18.239 30.2327 18.3722 30.2116 18.5059 30.198L26.1448 37.8369C26.3088 38.0008 26.5129 38.1191 26.7366 38.1801C26.9604 38.2411 27.1963 38.2426 27.4208 38.1846C27.6454 38.1266 27.851 38.011 28.0172 37.8492C28.1834 37.6875 28.3046 37.4851 28.3687 37.2622L29.8027 32.2709L35.0215 30.632C35.2403 30.5634 35.4376 30.4394 35.5945 30.2722C35.7514 30.105 35.8626 29.9001 35.9172 29.6775C35.9718 29.4548 35.9681 29.2217 35.9064 29.0009C35.8447 28.7801 35.7271 28.5789 35.5649 28.4167L30.6448 23.4966C31.5287 22.5788 31.9566 21.2683 31.6795 19.9358L31.4347 18.7622L32.2454 17.8786C33.6294 16.3657 33.6438 14.0707 32.2767 12.54L31.4798 11.6459L31.7402 10.4758C32.1847 8.47222 31.0498 6.47693 29.1013 5.83515L27.9625 5.46015L27.6031 4.31605C26.9871 2.35783 25.0079 1.19511 22.9972 1.61466L21.8236 1.85946L20.9382 1.05043C20.1813 0.35754 19.2292 0.00619246 18.275 8.13526e-05ZM23.6066 11.4688C23.9477 11.4688 24.2888 11.599 24.5493 11.8595C25.0702 12.3803 25.0693 13.2231 24.5493 13.7431L17.6413 20.6511C17.3808 20.9116 17.0399 21.0417 16.6986 21.0417C16.3572 21.0417 16.0146 20.9116 15.7541 20.6511L11.8079 16.7049C11.2871 16.1849 11.2871 15.3395 11.8079 14.8195C12.3288 14.2986 13.1725 14.2986 13.6934 14.8195L16.6986 17.8247L22.6639 11.8595C22.9243 11.599 23.2654 11.4688 23.6066 11.4688ZM8.25239 24.7258L8.39302 24.7727L8.75239 25.9167C9.36928 27.875 11.345 29.0332 13.3583 28.6181L14.5319 28.3733L15.2489 29.0279L9.92427 34.3525L8.91732 30.8456C8.8563 30.634 8.74381 30.4408 8.58992 30.2832C8.43602 30.1257 8.2455 30.0087 8.03538 29.9428L4.22982 28.7483L8.25239 24.7258ZM28.1743 24.797L32.1257 28.7483L28.3201 29.9428C28.11 30.0087 27.9195 30.1257 27.7656 30.2832C27.6117 30.4408 27.4992 30.634 27.4382 30.8456L26.4312 34.3525L21.0406 28.9619L21.6482 28.4202L22.8184 28.6789C24.821 29.126 26.8172 27.9885 27.459 26.04L27.8357 24.9029L28.1743 24.797Z" fill="#18212E"/>
</svg>
