<svg width="29" height="28" viewBox="0 0 29 28" fill="none" xmlns="http://www.w3.org/2000/svg">
<path d="M13.7602 0.945161C14.1191 0.175001 15.2142 0.174998 15.5731 0.945159L18.9748 8.24517C19.1205 8.55789 19.4171 8.77341 19.7596 8.81537L27.7535 9.79476C28.5969 9.89809 28.9353 10.9396 28.3137 11.5189L22.4222 17.0099C22.1698 17.2451 22.0565 17.5939 22.1224 17.9325L23.6612 25.8378C23.8235 26.6718 22.9376 27.3155 22.1946 26.9034L15.1517 22.997C14.85 22.8297 14.4833 22.8297 14.1816 22.997L7.13874 26.9034C6.39571 27.3155 5.50977 26.6718 5.67212 25.8378L7.21092 17.9325C7.27684 17.5939 7.16353 17.2451 6.91114 17.0099L1.01961 11.5189C0.398046 10.9396 0.736439 9.89809 1.57981 9.79476L9.57372 8.81537C9.91617 8.77341 10.2128 8.55789 10.3585 8.24517L13.7602 0.945161Z" fill="#FAD745"/>
</svg>
