<svg width="37" height="36" viewBox="0 0 37 36" fill="none" xmlns="http://www.w3.org/2000/svg">
<path d="M21.7836 4.64001C21.5999 4.64001 21.4306 4.73998 21.3423 4.90126L17.7586 11.5725C17.6728 11.7287 17.6758 11.9196 17.7661 12.0725C17.857 12.2261 18.0219 12.32 18.1998 12.32H20.7598L18.4611 17.3838C18.3689 17.6078 18.4494 17.865 18.6523 17.9975C18.7368 18.0526 18.8326 18.08 18.9273 18.08C19.0611 18.08 19.1932 18.0274 19.2911 17.925L27.0198 9.97251C27.1593 9.82723 27.1992 9.6125 27.1198 9.42626C27.0405 9.24066 26.8583 9.12001 26.6561 9.12001L24.3198 9.16001L26.4186 5.39876C26.5101 5.2426 26.5107 5.05056 26.4211 4.89376C26.3315 4.73696 26.1647 4.64001 25.9836 4.64001H21.7836ZM18.1998 5.92626C12.1006 6.05426 8.72107 9.47891 8.72107 14.9125V17.9325C7.89547 18.3229 7.31982 19.1425 7.31982 20.1025C7.31982 21.4401 8.42052 22.5275 9.77732 22.5275C9.79012 22.5275 9.80312 22.5213 9.82232 22.5213C10.9295 27.7309 14.2638 31.52 18.1998 31.52C22.1358 31.52 25.4701 27.7309 26.5773 22.5213C26.5965 22.5213 26.6095 22.5275 26.6223 22.5275C27.9791 22.5275 29.0798 21.4401 29.0798 20.1025C29.0798 19.1425 28.5042 18.3229 27.6786 17.9325V14.9125C27.6786 13.9973 27.5818 13.1324 27.3898 12.3388L20.6761 19.2513C20.2217 19.7249 19.589 20 18.9298 20C18.4562 20 18.0016 19.8662 17.6048 19.6038C16.632 18.9702 16.242 17.7277 16.6836 16.6525L16.7023 16.6213L16.7148 16.5888L17.7961 14.2075C17.0985 14.0859 16.4784 13.6644 16.1136 13.05C15.6784 12.314 15.6654 11.3985 16.0686 10.6625L18.6036 5.93876C18.4692 5.93236 18.3342 5.92626 18.1998 5.92626Z" fill="#18212E"/>
</svg>
