<svg width="37" height="36" viewBox="0 0 37 36" fill="none" xmlns="http://www.w3.org/2000/svg">
<path d="M9.83961 6.47999C9.67 6.47759 9.5016 6.50892 9.3442 6.57217C9.1868 6.63542 9.04354 6.72932 8.92275 6.84842C8.80195 6.96752 8.70603 7.10944 8.64056 7.26592C8.5751 7.42241 8.54138 7.59035 8.54138 7.75999C8.54138 7.92962 8.5751 8.09756 8.64056 8.25405C8.70603 8.41054 8.80195 8.55245 8.92275 8.67155C9.04354 8.79065 9.1868 8.88455 9.3442 8.9478C9.5016 9.01105 9.67 9.04239 9.83961 9.03999V9.67999C9.83961 13.4685 12.2593 16.6176 15.5996 17.9212V18.0787C12.2592 19.3818 9.83961 22.5309 9.83961 26.32V26.96C9.67 26.9576 9.5016 26.9889 9.3442 27.0522C9.1868 27.1154 9.04354 27.2093 8.92275 27.3284C8.80195 27.4475 8.70603 27.5894 8.64056 27.7459C8.5751 27.9024 8.54138 28.0704 8.54138 28.24C8.54138 28.4096 8.5751 28.5776 8.64056 28.734C8.70603 28.8905 8.80195 29.0325 8.92275 29.1516C9.04354 29.2706 9.1868 29.3645 9.3442 29.4278C9.5016 29.491 9.67 29.5224 9.83961 29.52H11.1196H26.4796H27.7596C27.9292 29.5224 28.0976 29.491 28.255 29.4278C28.4124 29.3645 28.5557 29.2706 28.6765 29.1516C28.7973 29.0325 28.8932 28.8905 28.9587 28.734C29.0241 28.5776 29.0578 28.4096 29.0578 28.24C29.0578 28.0704 29.0241 27.9024 28.9587 27.7459C28.8932 27.5894 28.7973 27.4475 28.6765 27.3284C28.5557 27.2093 28.4124 27.1154 28.255 27.0522C28.0976 26.9889 27.9292 26.9576 27.7596 26.96V26.32C27.7596 22.5309 25.3399 19.3823 21.9996 18.0787V17.9212C25.3401 16.6181 27.7596 13.4685 27.7596 9.67999V9.03999C27.9292 9.04239 28.0976 9.01105 28.255 8.9478C28.4124 8.88455 28.5557 8.79065 28.6765 8.67155C28.7973 8.55245 28.8932 8.41054 28.9587 8.25405C29.0241 8.09756 29.0578 7.92962 29.0578 7.75999C29.0578 7.59035 29.0241 7.42241 28.9587 7.26592C28.8932 7.10944 28.7973 6.96752 28.6765 6.84842C28.5557 6.72932 28.4124 6.63542 28.255 6.57217C28.0976 6.50892 27.9292 6.47759 27.7596 6.47999H26.4796H11.1196H9.83961ZM12.3996 9.03999H25.1996V9.67999C25.1996 12.6726 23.1564 15.1584 20.3996 15.8687C20.125 15.9397 19.8817 16.0998 19.7079 16.324C19.5341 16.5483 19.4398 16.8238 19.4396 17.1075V18.8912C19.4395 19.1751 19.5337 19.451 19.7075 19.6754C19.8813 19.8999 20.1248 20.0602 20.3996 20.1312C23.1568 20.8422 25.1996 23.3266 25.1996 26.32V26.96H24.7959C24.3344 24.0595 21.83 21.84 18.7996 21.84C15.7692 21.84 13.2648 24.0595 12.8034 26.96H12.3996V26.32C12.3996 23.3266 14.4427 20.8417 17.1996 20.1312C17.4743 20.0603 17.7176 19.9001 17.8913 19.6759C18.0651 19.4517 18.1595 19.1761 18.1596 18.8925V17.1087C18.1597 16.8249 18.0655 16.549 17.8917 16.3245C17.7179 16.1001 17.4745 15.9397 17.1996 15.8687C14.4426 15.1578 12.3996 12.6726 12.3996 9.67999V9.03999Z" fill="#18212E"/>
</svg>
