<svg width="729" height="220" viewBox="0 0 729 220" fill="none" xmlns="http://www.w3.org/2000/svg">
<path d="M230.456 58.9925C230.487 58.9888 230.518 58.979 230.545 58.9636C230.572 58.9483 230.596 58.9277 230.615 58.903C230.635 58.8782 230.649 58.85 230.657 58.8198C230.665 58.7895 230.667 58.7579 230.663 58.7269L230.604 57.9892C230.584 57.6548 230.407 57.4974 230.072 57.5171C199.075 59.2875 168.049 61.6383 136.993 64.5694C127.567 65.4546 119.335 64.0874 112.296 60.4678C111.31 59.9564 110.699 59.1695 110.462 58.1073L109.87 55.304C109.654 54.2418 109.052 53.4746 108.066 53.0025C107.08 52.5303 106.38 51.8025 105.966 50.819C105.375 49.4223 105.838 48.7731 107.357 48.8715C108.441 48.9305 109.437 48.6944 110.344 48.1633C110.89 47.8387 111.328 47.3573 111.599 46.7823C111.87 46.2073 111.962 45.5653 111.863 44.9404C111.764 44.3155 111.479 43.7368 111.044 43.2799C110.609 42.823 110.046 42.5093 109.427 42.3798C100.711 40.511 93.2778 37.0685 87.1258 32.0522C86.9023 31.8671 86.7359 31.6228 86.6459 31.3473C86.5558 31.0718 86.5457 30.7765 86.6169 30.4956C86.6881 30.2147 86.8376 29.9595 87.048 29.7598C87.2584 29.5601 87.5212 29.4239 87.806 29.367C98.4538 27.3015 109.072 24.6163 119.956 23.1115C173.234 15.7346 226.72 10.4528 280.412 7.266C364.943 2.26942 444.397 -0.150165 518.773 0.00720798C555.508 0.0858944 595.211 1.59077 637.88 4.52184C646.339 5.08248 654.739 6.73486 663.139 8.18072C663.909 8.31881 664.614 8.69685 665.151 9.25956C665.689 9.82228 666.03 10.5402 666.126 11.3085C666.817 16.6198 666.58 21.9509 665.417 27.3015C664.017 33.7342 663.317 38.5931 663.317 41.8782C663.317 46.7764 663.317 51.7435 663.317 56.7794C663.321 57.1265 663.247 57.4699 663.098 57.784C662.949 58.0981 662.729 58.3748 662.456 58.5933C662.183 58.8118 661.863 58.9665 661.521 59.0459C661.178 59.1252 660.821 59.1271 660.477 59.0514C657.934 58.5006 655.41 58.6089 652.906 59.3761C651.624 59.7892 651.496 60.4186 652.521 61.2645C653.467 62.0514 654.542 62.5432 655.745 62.7399C656.369 62.8572 656.953 63.1325 657.445 63.5401C657.936 63.9477 658.318 64.4744 658.555 65.071C658.988 66.1726 659.077 67.2644 658.821 68.3464C658.505 69.802 659.077 70.6282 660.536 70.825C676.035 73.0085 693.15 75.4281 711.882 78.0838C714.899 78.4969 718.123 79.2837 721.554 80.4443C722.287 80.6944 722.938 81.1365 723.438 81.7236C723.938 82.3107 724.268 83.0209 724.393 83.7787C725.813 91.8637 726.414 99.7422 726.197 107.414C725.961 115.647 728.416 122.876 728.505 131.109C728.524 132.938 728.031 134.571 727.026 136.007C726.434 136.853 726.365 137.738 726.819 138.662L728.593 142.115C729.126 143.157 729.135 144.21 728.623 145.272C726.335 150.151 721.948 152.344 715.461 151.852C712.543 151.636 712.345 152.256 714.869 153.711C716.506 154.655 718.409 155.01 720.578 154.773C722.274 154.596 722.796 155.285 722.145 156.839C720.282 161.236 721.702 163.36 717.738 167.314C715.648 169.38 713.548 171.426 711.438 173.452C710.748 174.121 710.512 174.927 710.729 175.871C711.044 177.229 710.739 178.32 709.812 179.147C709.181 179.717 708.422 179.983 707.534 179.943C702.723 179.668 697.803 180.042 692.775 181.065C692.491 181.118 692.234 181.262 692.042 181.476C691.851 181.689 691.734 181.961 691.711 182.25C691.688 182.539 691.759 182.829 691.913 183.079C692.068 183.328 692.298 183.522 692.568 183.632L707.623 189.563C708.049 189.731 708.43 189.994 708.737 190.333C709.045 190.671 709.27 191.076 709.396 191.515C709.521 191.954 709.544 192.416 709.463 192.866C709.381 193.315 709.197 193.74 708.924 194.107C707.781 195.661 706.331 196.172 704.577 195.641C703.65 195.366 702.733 195.386 701.826 195.7C680.885 203.136 655.331 202.9 633.74 202.192C623.427 201.838 613.105 201.71 602.772 201.808C588.871 201.926 574.94 201.189 561.305 201.69C535.554 202.654 508.983 203.264 481.595 203.52C475.818 203.559 469.961 204.041 464.026 204.966C458.821 205.752 452.57 205.693 445.275 204.789C444.584 204.71 444.328 204.336 444.505 203.667C444.584 203.392 444.703 203.126 444.86 202.871C444.998 202.654 445.205 202.507 445.481 202.428C446.842 202.015 448.035 201.316 449.06 200.333C449.987 199.408 449.8 198.887 448.498 198.769C443.194 198.277 438.413 198.494 434.153 199.418C433.187 199.615 432.231 199.576 431.285 199.3C426.809 198.041 422.471 198.346 418.271 200.215C417.364 200.628 416.427 200.717 415.461 200.48L411.231 199.418C410.009 199.103 410.019 198.798 411.261 198.503L416.2 197.294C416.395 197.249 416.57 197.144 416.698 196.995C416.827 196.846 416.901 196.661 416.91 196.467L416.969 195.7C416.989 195.41 416.938 195.119 416.822 194.852C416.707 194.584 416.528 194.349 416.303 194.164C416.077 193.979 415.811 193.851 415.525 193.79C415.24 193.728 414.944 193.736 414.662 193.812C410.502 194.933 406.075 195.454 401.382 195.376C400.889 195.356 400.593 195.11 400.495 194.638L400.081 193.045C399.884 192.218 400.209 191.874 401.057 192.012C405.789 192.72 410.709 192.395 415.816 191.038C420.666 189.769 425.221 191.186 430.101 191.835C431.127 191.972 432.024 191.717 432.793 191.068C433.148 190.753 433.444 190.389 433.68 189.976C434.134 189.189 434.824 188.845 435.751 188.943C441.37 189.592 446.911 189.238 452.373 187.881C455.41 187.133 458.486 186.799 461.601 186.878C462.19 186.893 462.773 186.769 463.304 186.515C463.836 186.262 464.299 185.887 464.657 185.421C465.015 184.954 465.257 184.41 465.363 183.832C465.469 183.255 465.437 182.66 465.269 182.097C464.401 179.265 462.685 177.652 460.122 177.258C459.901 177.229 459.676 177.245 459.462 177.304C459.248 177.364 459.049 177.466 458.877 177.604C458.705 177.743 458.564 177.914 458.463 178.109C458.361 178.303 458.302 178.516 458.288 178.734C457.993 182.215 455.981 184.566 452.255 185.786C451.229 186.12 450.49 185.796 450.036 184.812L446.872 177.878C446.359 176.776 446.566 175.842 447.493 175.075C449.11 173.757 450.815 173.737 452.61 175.016C453.418 175.566 454.286 175.714 455.212 175.458C455.981 175.222 456.602 174.74 457.076 174.012C457.174 173.856 457.227 173.675 457.229 173.49C457.232 173.306 457.183 173.124 457.088 172.965C456.993 172.807 456.856 172.677 456.692 172.591C456.528 172.505 456.344 172.466 456.159 172.478L437.555 173.275C437.259 173.275 437.082 173.432 437.022 173.747L436.845 175.045C436.727 175.753 437.022 176.107 437.732 176.107L443.027 176.225C443.395 176.237 443.752 176.358 444.052 176.572C444.352 176.786 444.581 177.084 444.711 177.429C444.841 177.773 444.865 178.148 444.781 178.507C444.697 178.865 444.509 179.19 444.239 179.442L436.52 186.553C435.672 187.32 434.735 187.458 433.71 186.966C431.324 185.786 428.869 185.402 426.345 185.815C425.865 185.896 425.371 185.791 424.965 185.523C424.559 185.255 424.27 184.842 424.156 184.369L422.145 176.196C421.889 175.153 421.228 174.622 420.164 174.602C415.983 174.504 412.227 175.291 408.895 176.963C408.027 177.396 407.209 177.337 406.44 176.786C403.936 175.055 401.678 175.655 399.667 178.586C399.075 179.491 398.326 179.638 397.419 179.029C396.788 178.635 396.384 178.084 396.206 177.376C396.099 176.957 395.852 176.585 395.502 176.323C395.153 176.06 394.724 175.922 394.284 175.93L392.805 175.989C391.562 176.029 391.208 176.609 391.74 177.73C392.391 179.068 393.258 180.238 394.343 181.242C395.368 182.205 395.181 182.786 393.781 182.983C391.947 183.219 390.074 183.878 388.161 184.96C387.333 185.451 386.465 185.52 385.558 185.166C385.184 185.028 384.809 184.901 384.434 184.783C383.468 184.487 382.729 184.763 382.216 185.609C380.599 188.264 378.509 188.559 375.946 186.494C374.763 185.53 373.737 185.668 372.87 186.907C371.726 188.52 370.109 189.514 368.019 189.887C367.211 190.045 366.442 189.986 365.712 189.71C363.425 188.805 363.514 188.373 365.978 188.412C369.646 188.451 371.775 186.051 372.367 181.212C372.584 179.52 371.933 179.088 370.415 179.914C370.139 180.071 369.853 180.238 369.557 180.415C369.025 180.75 368.611 181.183 368.315 181.714C366.994 184.094 365.012 184.851 362.37 183.986C362.203 183.939 362.029 183.929 361.86 183.954C361.692 183.98 361.533 184.041 361.394 184.133C360.901 184.468 360.694 184.881 360.773 185.373C360.891 185.904 360.684 186.189 360.152 186.228C356.879 186.484 355.548 188.255 356.159 191.54C356.415 192.897 355.902 193.32 354.621 192.809C352.984 192.14 351.269 191.953 349.474 192.248C342.652 193.369 336.342 193.192 330.545 191.717C330.281 191.648 330.041 191.508 329.85 191.313C329.659 191.118 329.526 190.876 329.464 190.613C329.403 190.351 329.416 190.077 329.503 189.824C329.589 189.571 329.745 189.348 329.953 189.179C331.294 188.058 332.024 186.671 332.142 185.019C332.221 183.976 331.728 183.435 330.663 183.396C322.737 183.081 315.421 183.504 308.717 184.664C289.847 187.95 271.42 190.123 253.438 191.186C250.283 191.363 247.69 192.189 245.659 193.664C245.366 193.869 245.015 193.974 244.658 193.963C244.301 193.952 243.957 193.827 243.677 193.605C243.184 193.231 242.79 192.769 242.494 192.218C242.001 191.294 241.222 190.92 240.158 191.097C235.918 191.746 231.807 191.786 227.824 191.215C224.304 190.713 221.642 192.897 218.3 193.281C198.661 195.612 179.406 198.858 159.826 200.185C152.59 200.657 144.959 201.474 136.934 202.634C122.973 204.611 108.747 205.025 94.2834 207.592C87.9736 208.693 81.6934 209.559 75.4428 210.188C58.8205 211.841 38.9644 215.106 15.8746 219.985C15.6558 220.027 15.4285 219.98 15.2408 219.853C15.0531 219.727 14.9198 219.531 14.869 219.306L14.6915 218.45C14.5732 217.801 14.8394 217.428 15.4901 217.329C22.5591 216.414 28.4745 213.228 35.6321 211.605C55.0741 207.198 73.6485 203.52 91.3553 200.569C138.777 192.7 196.65 184.202 264.973 175.075C273.925 173.894 282.226 173.098 289.877 172.684C291.336 172.606 292.578 172.134 293.603 171.268C294.51 170.521 294.392 170.019 293.248 169.763C286.209 168.258 281.506 171.622 274.97 172.035C261.936 172.842 250.421 173.875 240.424 175.134C202.112 179.894 163.513 185.097 124.63 190.743C108.717 193.074 93.6327 192.631 77.5428 196.113C74.2301 196.841 71.5781 195.956 69.5865 193.458C68.9358 192.651 68.1275 192.425 67.1613 192.779C62.843 194.294 58.2093 194.795 53.26 194.284C52.8713 194.24 52.4789 194.305 52.1281 194.472C51.7774 194.639 51.4827 194.901 51.2783 195.228C50.6276 196.231 49.8389 196.359 48.9122 195.612C48.0643 194.923 48.1826 194.53 49.2671 194.431C56.129 193.802 61.3543 191.746 64.943 188.264C65.6134 187.635 66.412 187.31 67.3387 187.291C70.9866 187.251 74.3781 186.258 77.5133 184.31C78.6569 183.602 79.8794 183.425 81.1808 183.779C88.1413 185.648 94.5003 184.251 100.258 179.589C100.632 179.29 100.875 178.857 100.935 178.379C100.996 177.901 100.87 177.415 100.583 177.022C99.0453 174.996 98.7496 172.891 99.6961 170.708C100.15 169.665 99.8045 169.252 98.6608 169.468C96.6496 169.881 94.7468 170.383 92.9525 170.973C91.6905 171.386 91.6412 171.917 92.8045 172.566L93.9285 173.216C94.6581 173.609 94.944 174.209 94.7862 175.016C94.5891 175.979 93.8398 176.53 92.5384 176.668C88.8314 177.042 85.7455 176.117 83.2807 173.894C82.5314 173.245 81.654 172.95 80.6484 173.009C78.6175 173.147 76.6752 173.52 74.8217 174.13C73.2443 174.642 73.2443 175.134 74.8217 175.606C75.3738 175.783 75.9653 175.871 76.5963 175.871C80.3821 175.93 80.6385 176.924 77.3653 178.851C75.6498 179.855 73.6288 180.356 71.302 180.356C69.8626 180.356 69.2612 179.648 69.4978 178.232L69.764 176.668C70.04 175.075 69.4683 174.681 68.0486 175.488C64.7162 177.356 61.374 177.878 58.0219 177.052C56.898 176.776 55.7938 176.845 54.7093 177.258C50.3713 178.891 46.2404 179.196 42.3165 178.173C41.2714 177.897 40.2757 177.996 39.3293 178.468L32.7335 181.773C32.267 181.995 31.7611 182.121 31.2473 182.141C30.7334 182.161 30.2225 182.076 29.7462 181.891C24.9745 180.022 20.1239 179.343 15.1944 179.855C13.9916 179.973 12.8676 179.756 11.8225 179.206C8.45074 177.396 5.04943 177.435 1.61849 179.324C1.50432 179.386 1.37735 179.422 1.24724 179.428C1.11713 179.435 0.987328 179.411 0.867599 179.36C0.74787 179.309 0.641327 179.231 0.556195 179.133C0.471063 179.035 0.409526 178.918 0.376213 178.793L0.0804238 177.789C-0.0636833 177.248 -0.0130716 176.671 0.22376 176.155C0.460591 175.64 0.869328 175.217 1.38182 174.956C9.09158 171.16 17.6789 168.042 27.1435 165.603C27.4847 165.514 27.8022 165.351 28.074 165.127C28.3459 164.903 28.5655 164.623 28.7175 164.305C28.8695 163.988 28.9505 163.641 28.9544 163.289C28.9584 162.938 28.8854 162.589 28.7406 162.268C26.966 158.275 27.9125 155.324 31.5801 153.416C33.7293 152.315 33.5913 151.783 31.1659 151.823L26.9068 151.911C25.6252 151.931 24.9153 151.311 24.7773 150.052C23.1801 135.682 18.2999 123.879 18.8323 108.742C18.8493 108.345 19.0042 107.967 19.2695 107.676C19.5348 107.384 19.8934 107.197 20.2816 107.149C23.259 106.735 26.2167 105.998 29.1547 104.936C45.4813 99.034 62.9022 95.2571 78.6963 92.6899C121.465 85.8147 164.884 81.3001 208.303 73.7462C208.697 73.6871 208.875 73.4708 208.835 73.097V73.0675C208.776 72.6347 208.53 72.4282 208.096 72.4478C177.336 74.533 146.793 77.887 116.466 82.5099C111.438 83.2771 107.238 81.3001 102.861 79.2936C102.59 79.1729 102.36 78.9751 102.201 78.7249C102.042 78.4747 101.961 78.1833 101.967 77.8871C101.973 77.5909 102.067 77.3032 102.237 77.06C102.406 76.8168 102.644 76.6289 102.92 76.5199C106.903 74.8871 110.649 73.7855 114.159 73.215C151.939 66.9988 190.705 62.2579 230.456 58.9925ZM255.205 56.9541C255.203 56.9038 254.929 56.8639 254.397 56.8368C253.865 56.8097 253.086 56.7958 252.105 56.7961C251.124 56.7963 249.959 56.8106 248.678 56.8382C247.397 56.8658 246.025 56.906 244.639 56.9567C241.841 57.0591 239.159 57.1977 237.183 57.3419C235.207 57.4862 234.098 57.6243 234.101 57.726C234.103 57.7764 234.378 57.8162 234.91 57.8433C235.442 57.8705 236.221 57.8843 237.202 57.884C238.183 57.8838 239.347 57.8695 240.628 57.8419C241.909 57.8143 243.282 57.7741 244.667 57.7234C247.466 57.621 250.148 57.4824 252.124 57.3382C254.1 57.1939 255.208 57.0558 255.205 56.9541ZM104.902 172.065C105.135 172.366 105.459 172.585 105.826 172.691C106.192 172.797 106.583 172.785 106.942 172.655C108.362 172.183 109.042 171.317 108.983 170.058C108.924 168.721 108.234 168.15 106.913 168.347L104.28 168.76C103.097 168.937 102.871 169.498 103.6 170.442L104.902 172.065ZM119.394 171.593C118.625 170.865 118.054 170.009 117.679 169.026C117.344 168.14 116.762 167.944 115.934 168.435L113.775 169.734C112.907 170.245 112.641 170.963 112.976 171.888C116.377 181.596 129.805 174.101 136.224 172.006C136.342 171.966 136.441 171.898 136.519 171.799C136.756 171.504 136.776 171.16 136.579 170.766C136.483 170.577 136.33 170.422 136.139 170.321C135.949 170.221 135.731 170.181 135.514 170.206L121.494 172.242C121.125 172.297 120.745 172.268 120.382 172.155C120.019 172.043 119.682 171.851 119.394 171.593ZM479.051 171.18C475.542 169.842 473.235 169.586 472.13 170.412C469.232 172.576 469.597 173.943 473.225 174.514C475.137 174.829 476.991 174.799 478.785 174.425C482.532 173.639 482.62 172.557 479.051 171.18ZM520.299 172.039C520.311 171.873 520.19 171.699 519.942 171.528C519.695 171.356 519.327 171.19 518.858 171.039C518.39 170.889 517.83 170.756 517.212 170.649C516.593 170.542 515.928 170.462 515.254 170.415C514.58 170.368 513.91 170.354 513.282 170.375C512.655 170.395 512.082 170.449 511.597 170.533C511.112 170.617 510.725 170.73 510.456 170.866C510.187 171.001 510.043 171.157 510.031 171.323C510.019 171.489 510.141 171.663 510.388 171.835C510.635 172.006 511.003 172.172 511.472 172.323C511.94 172.474 512.5 172.607 513.118 172.714C513.737 172.821 514.402 172.9 515.076 172.947C515.751 172.994 516.421 173.008 517.048 172.988C517.675 172.968 518.248 172.914 518.733 172.83C519.218 172.745 519.606 172.632 519.874 172.497C520.143 172.361 520.287 172.206 520.299 172.039ZM493.367 178.556C488.832 180.681 483.32 181.458 476.833 180.888C473.521 180.592 471.529 181.832 470.859 184.605C470.773 184.974 470.793 185.361 470.918 185.719C471.043 186.077 471.267 186.391 471.563 186.625C471.86 186.858 472.216 187 472.589 187.035C472.962 187.069 473.337 186.994 473.668 186.819C478.913 184.124 484.237 182.747 489.64 182.688C490.646 182.668 491.572 182.383 492.42 181.832C494.747 180.258 496.896 178.547 498.868 176.698C499.479 176.107 499.834 175.379 499.933 174.514C500.051 173.471 499.746 172.606 499.016 171.917C497.971 170.914 497.251 171.101 496.857 172.478L495.97 175.488C495.575 176.904 494.708 177.927 493.367 178.556ZM434.328 176.609C434.369 176.29 434.311 175.961 434.154 175.641C433.998 175.321 433.748 175.017 433.418 174.745C433.087 174.473 432.684 174.238 432.23 174.055C431.776 173.873 431.281 173.744 430.773 173.679C430.264 173.613 429.752 173.61 429.267 173.671C428.781 173.733 428.331 173.856 427.942 174.035C427.553 174.214 427.233 174.445 427 174.714C426.767 174.984 426.626 175.287 426.585 175.606C426.543 175.925 426.602 176.253 426.758 176.573C426.915 176.893 427.165 177.198 427.495 177.47C427.825 177.742 428.229 177.976 428.683 178.159C429.136 178.342 429.632 178.47 430.14 178.536C430.649 178.602 431.16 178.604 431.646 178.543C432.132 178.482 432.582 178.358 432.971 178.179C433.359 178.001 433.679 177.77 433.912 177.5C434.145 177.231 434.286 176.928 434.328 176.609ZM103.778 177.052C103.64 177.012 103.511 177.012 103.393 177.052C102.033 177.484 102.052 177.829 103.452 178.084C105.109 178.419 106.637 178.468 108.037 178.232C108.471 178.153 108.648 177.897 108.569 177.465C108.53 177.17 108.431 176.904 108.273 176.668C107.84 175.999 107.248 175.783 106.499 176.019C105.907 176.216 105.365 176.501 104.872 176.875C104.537 177.111 104.172 177.17 103.778 177.052ZM381.063 181.36C382.601 181.851 383.419 181.389 383.518 179.973C383.577 179.127 383.182 178.615 382.335 178.438C381.526 178.261 380.885 178.429 380.412 178.94C380.24 179.123 380.118 179.347 380.057 179.59C379.996 179.833 379.999 180.088 380.064 180.33C380.129 180.572 380.255 180.794 380.43 180.974C380.604 181.154 380.822 181.287 381.063 181.36ZM348.705 181.891C344.407 180.907 340.138 180.858 335.898 181.743C335.75 181.775 335.612 181.844 335.498 181.945C335.384 182.045 335.299 182.172 335.251 182.313C335.202 182.454 335.193 182.604 335.224 182.748C335.255 182.891 335.324 183.023 335.425 183.13C339.901 188.009 344.338 187.95 348.735 182.953C348.93 182.728 349.184 182.561 349.469 182.47C349.753 182.379 350.057 182.369 350.347 182.439C350.637 182.509 350.902 182.657 351.114 182.868C351.325 183.078 351.474 183.342 351.545 183.632C351.821 184.655 352.353 185.54 353.142 186.287C353.871 186.976 354.483 186.887 354.976 186.022C355.824 184.605 357.184 183.887 359.057 183.868C359.826 183.848 360.24 183.464 360.3 182.717L360.359 181.95C360.378 181.832 360.329 181.763 360.211 181.743C357.233 181.074 354.266 181.114 351.308 181.861C350.44 182.078 349.573 182.087 348.705 181.891ZM439.684 194.697C440.69 195.287 441.794 195.562 442.997 195.523C444.456 195.484 444.584 195.061 443.382 194.254C442.356 193.566 441.232 192.956 440.01 192.425C439.477 192.189 438.994 192.12 438.56 192.218C437.851 192.376 437.427 192.808 437.289 193.517C437.229 193.733 437.289 193.91 437.466 194.048C437.782 194.284 438.166 194.402 438.62 194.402C438.994 194.422 439.349 194.52 439.684 194.697ZM485.079 198.737C485.286 198.342 485.139 197.782 484.671 197.182C484.203 196.582 483.452 195.991 482.583 195.538C482.153 195.313 481.707 195.13 481.27 194.997C480.833 194.865 480.414 194.786 480.038 194.766C479.661 194.746 479.333 194.784 479.074 194.879C478.814 194.974 478.628 195.124 478.526 195.319C478.319 195.715 478.465 196.274 478.933 196.874C479.401 197.474 480.152 198.065 481.021 198.518C481.451 198.743 481.898 198.927 482.334 199.059C482.771 199.191 483.19 199.27 483.567 199.29C483.944 199.311 484.271 199.272 484.53 199.177C484.79 199.082 484.976 198.933 485.079 198.737ZM457.342 199.418C458.643 201.051 460.152 201.139 461.867 199.684C462.053 199.532 462.19 199.331 462.264 199.103C462.337 198.876 462.343 198.632 462.28 198.401C462.218 198.17 462.09 197.962 461.911 197.802C461.733 197.643 461.512 197.538 461.276 197.5C459.856 197.264 458.357 197.313 456.78 197.648C455.794 197.864 455.686 198.287 456.455 198.917C456.711 199.133 457.007 199.3 457.342 199.418Z" fill="#18212E"/>
</svg>
