<svg width="30" height="30" viewBox="0 0 30 30" fill="none" xmlns="http://www.w3.org/2000/svg">
<g filter="url(#filter0_i_33_317)">
<path d="M15 0C23.271 0 30 6.729 30 15C30 23.271 23.271 30 15 30C6.729 30 0 23.271 0 15C0 6.729 6.729 0 15 0ZM8.625 16.125H15V19.5C15 19.9395 15.2557 20.3385 15.6547 20.5223C15.8055 20.5913 15.966 20.625 16.125 20.625C16.389 20.625 16.6492 20.532 16.8577 20.3542L22.1077 15.8542C22.3568 15.6405 22.5 15.3285 22.5 15C22.5 14.6715 22.3568 14.3595 22.107 14.1458L16.857 9.64575C16.5232 9.36 16.0545 9.294 15.6547 9.47775C15.2557 9.6615 15 10.0605 15 10.5V13.875H8.625C8.00325 13.875 7.5 14.3783 7.5 15C7.5 15.6217 8.00325 16.125 8.625 16.125Z" fill="#473A04"/>
</g>
<defs>
<filter id="filter0_i_33_317" x="0" y="0" width="30" height="30" filterUnits="userSpaceOnUse" color-interpolation-filters="sRGB">
<feFlood flood-opacity="0" result="BackgroundImageFix"/>
<feBlend mode="normal" in="SourceGraphic" in2="BackgroundImageFix" result="shape"/>
<feColorMatrix in="SourceAlpha" type="matrix" values="0 0 0 0 0 0 0 0 0 0 0 0 0 0 0 0 0 0 127 0" result="hardAlpha"/>
<feOffset/>
<feGaussianBlur stdDeviation="1"/>
<feComposite in2="hardAlpha" operator="arithmetic" k2="-1" k3="1"/>
<feColorMatrix type="matrix" values="0 0 0 0 0 0 0 0 0 0 0 0 0 0 0 0 0 0 1 0"/>
<feBlend mode="normal" in2="shape" result="effect1_innerShadow_33_317"/>
</filter>
</defs>
</svg>
