<svg width="26" height="28" viewBox="0 0 26 28" fill="none" xmlns="http://www.w3.org/2000/svg">
<g filter="url(#filter0_i_363_188)">
<path d="M5.65217 0C5.357 0 5.05609 0.111608 4.84299 0.331543C4.62988 0.551477 4.52174 0.862037 4.52174 1.16667V2.33333H1.13043C0.452174 2.33333 0 2.8 0 3.5V7.58333H26V3.5C26 2.8 25.5478 2.33333 24.8696 2.33333H21.4783V1.16667C21.4783 0.862037 21.3701 0.551477 21.157 0.331543C20.9439 0.111608 20.643 0 20.3478 0H19.2174C18.9222 0 18.6213 0.111608 18.4082 0.331543C18.1951 0.551477 18.087 0.862037 18.087 1.16667V2.33333H7.91304V1.16667C7.91304 0.862037 7.8049 0.551477 7.5918 0.331543C7.37869 0.111608 7.07778 0 6.78261 0H5.65217ZM5.65217 1.16667H6.78261V4.66667H5.65217V1.16667ZM19.2174 1.16667H20.3478V4.66667H19.2174V1.16667ZM0 8.75V26.8333C0 27.5333 0.452174 28 1.13043 28H24.8696C25.5478 28 26 27.5333 26 26.8333V8.75H0ZM5.65217 12.25H8.47826V15.1667H5.65217V12.25ZM9.6087 12.25H12.4348V15.1667H9.6087V12.25ZM13.5652 12.25H16.3913V15.1667H13.5652V12.25ZM17.5217 12.25H20.3478V15.1667H17.5217V12.25ZM5.65217 16.3333H8.47826V19.25H5.65217V16.3333ZM9.6087 16.3333H12.4348V19.25H9.6087V16.3333ZM13.5652 16.3333H16.3913V19.25H13.5652V16.3333ZM17.5217 16.3333H20.3478V19.25H17.5217V16.3333ZM5.65217 20.4167H8.47826V23.3333H5.65217V20.4167ZM9.6087 20.4167H12.4348V23.3333H9.6087V20.4167ZM13.5652 20.4167H16.3913V23.3333H13.5652V20.4167ZM17.5217 20.4167H20.3478V23.3333H17.5217V20.4167Z" fill="#473A04"/>
</g>
<defs>
<filter id="filter0_i_363_188" x="0" y="0" width="26" height="28" filterUnits="userSpaceOnUse" color-interpolation-filters="sRGB">
<feFlood flood-opacity="0" result="BackgroundImageFix"/>
<feBlend mode="normal" in="SourceGraphic" in2="BackgroundImageFix" result="shape"/>
<feColorMatrix in="SourceAlpha" type="matrix" values="0 0 0 0 0 0 0 0 0 0 0 0 0 0 0 0 0 0 127 0" result="hardAlpha"/>
<feOffset/>
<feGaussianBlur stdDeviation="1"/>
<feComposite in2="hardAlpha" operator="arithmetic" k2="-1" k3="1"/>
<feColorMatrix type="matrix" values="0 0 0 0 0 0 0 0 0 0 0 0 0 0 0 0 0 0 1 0"/>
<feBlend mode="normal" in2="shape" result="effect1_innerShadow_363_188"/>
</filter>
</defs>
</svg>
