<svg width="31" height="34" viewBox="0 0 31 34" fill="none" xmlns="http://www.w3.org/2000/svg">
<g filter="url(#filter0_i_52_415)">
<path d="M1.51207 0C0.680433 0 0 0.695455 0 1.54545V27.0455C0 27.8955 0.680433 28.5909 1.51207 28.5909H19.657C20.4886 28.5909 21.169 27.8955 21.169 27.0455V1.54545C21.169 0.695455 20.4886 0 19.657 0H1.51207ZM22.6811 3.8244V27.0455C22.6811 28.7532 21.3278 30.1364 19.657 30.1364H9.15514L21.7508 33.9306C21.8945 33.9769 22.0457 34 22.1894 34C22.8623 34 23.4827 33.5513 23.6793 32.8635L30.937 7.97479C31.1789 7.14024 30.7021 6.251 29.8856 6.00373L22.6811 3.8244ZM10.5845 10.0455H12.0966V20.0909H10.5845V13.1364H8.31641V11.8611C10.4711 11.8611 10.5845 10.0455 10.5845 10.0455Z" fill="#473A04"/>
</g>
<defs>
<filter id="filter0_i_52_415" x="0" y="0" width="31" height="34" filterUnits="userSpaceOnUse" color-interpolation-filters="sRGB">
<feFlood flood-opacity="0" result="BackgroundImageFix"/>
<feBlend mode="normal" in="SourceGraphic" in2="BackgroundImageFix" result="shape"/>
<feColorMatrix in="SourceAlpha" type="matrix" values="0 0 0 0 0 0 0 0 0 0 0 0 0 0 0 0 0 0 127 0" result="hardAlpha"/>
<feOffset/>
<feGaussianBlur stdDeviation="1"/>
<feComposite in2="hardAlpha" operator="arithmetic" k2="-1" k3="1"/>
<feColorMatrix type="matrix" values="0 0 0 0 0 0 0 0 0 0 0 0 0 0 0 0 0 0 1 0"/>
<feBlend mode="normal" in2="shape" result="effect1_innerShadow_52_415"/>
</filter>
</defs>
</svg>
