<svg width="84" height="84" viewBox="0 0 84 84" fill="none" xmlns="http://www.w3.org/2000/svg">
<path d="M42 3.5C34.3095 3.5 28 9.80947 28 17.5C28 20.0574 28.7478 22.4293 29.9619 24.5H21C19.068 24.5 17.5 22.9285 17.5 21C17.5 19.0715 19.068 17.5 21 17.5C21 15.043 21.4466 12.691 22.2236 10.5H21C15.211 10.5 10.5 15.211 10.5 21V66.5C10.5 70.3605 13.6395 73.5 17.5 73.5H66.5C70.3605 73.5 73.5 70.3605 73.5 66.5V31.5C73.5 28.6461 71.7776 26.1972 69.3232 25.1084C69.7279 23.7996 70 22.4335 70 21C70 13.3093 63.6907 7 56 7C54.5763 7 53.2034 7.23607 51.8984 7.63574C49.3584 5.0869 45.854 3.5 42 3.5ZM42 10.5C45.9074 10.5 49 13.5926 49 17.5C49 21.4074 45.9074 24.5 42 24.5C38.0926 24.5 35 21.4074 35 17.5C35 13.5926 38.0926 10.5 42 10.5ZM56 14C59.9083 14 63 17.0917 63 21C63 22.2874 62.6454 23.4723 62.0498 24.5H54.0381C55.2523 22.4293 56 20.0574 56 17.5C56 16.3082 55.7994 15.1687 55.5146 14.0615C55.6804 14.0501 55.8304 14 56 14ZM59.5 45.5C61.432 45.5 63 47.068 63 49C63 50.932 61.432 52.5 59.5 52.5C57.568 52.5 56 50.932 56 49C56 47.068 57.568 45.5 59.5 45.5Z" fill="#2D68F6"/>
</svg>
