<svg width="25" height="24" viewBox="0 0 25 24" fill="none" xmlns="http://www.w3.org/2000/svg">
<path d="M12.1665 2C6.6435 2 2.1665 6.477 2.1665 12C2.1665 17.523 6.6435 22 12.1665 22C17.6895 22 22.1665 17.523 22.1665 12C22.1665 6.477 17.6895 2 12.1665 2ZM12.1665 4.75C13.9615 4.75 15.4165 6.205 15.4165 8C15.4165 9.795 13.9615 11.25 12.1665 11.25C10.3715 11.25 8.9165 9.795 8.9165 8C8.9165 6.205 10.3715 4.75 12.1665 4.75ZM12.1665 20C9.3965 20 6.9565 18.592 5.5205 16.453C6.6415 14.823 10.2125 14 12.1665 14C14.1205 14 17.6915 14.823 18.8125 16.453C17.3765 18.592 14.9365 20 12.1665 20Z" fill="black"/>
</svg>
