<svg width="84" height="84" viewBox="0 0 84 84" fill="none" xmlns="http://www.w3.org/2000/svg">
<path d="M49.0068 14.0069C47.9861 14.0161 46.9663 14.2376 46.0195 14.6768L29.1348 22.4834L31.165 26.3799C32.7855 29.4984 36.471 30.9335 39.7715 29.7295L48.9795 26.3731L67.874 44.6934C69.2355 46.0129 70 47.8243 70 49.7178V52.5H77V17.5001L66.5 21.0001L52.0078 14.6221C51.0523 14.2021 50.0275 13.9977 49.0068 14.0069ZM7 17.5001V52.5H10.5L31.7666 71.1075C35.5571 74.422 41.2706 74.2295 44.8301 70.67L59.6641 55.836C61.5051 53.995 62.4218 51.5893 62.4463 49.1778L47.2568 34.4532L42.1641 36.3057C40.6206 36.8692 39.0101 37.1534 37.3721 37.1534C32.1256 37.1534 27.3697 34.2615 24.9512 29.6065L22.9277 25.71C22.0457 24.0125 21.8947 22.0234 22.5107 20.2139C22.8677 19.1674 23.4872 18.2561 24.2607 17.5001H7Z" fill="#2D68F6"/>
</svg>
