<svg width="315" height="100" viewBox="0 0 315 100" fill="none" xmlns="http://www.w3.org/2000/svg">
<path d="M0 12.5641C0 9.59022 2.41077 7.17944 5.38462 7.17944H50.7051C53.679 7.17944 56.0897 9.59022 56.0897 12.5641V73.5897C56.0897 87.9632 44.4377 99.6153 30.0641 99.6153H26.0257C11.6521 99.6153 0 87.9633 0 73.5897V12.5641Z" fill="#2D68F6"/>
<path d="M45.5447 16.8269L8.74732 38.4593C8.63001 38.5283 8.60061 38.6849 8.68493 38.7917L11.8235 42.7672C11.866 42.8211 11.9309 42.8525 11.9996 42.8525H13.237M45.5447 42.8525H13.237M13.237 42.8525L23.4316 36.7949M23.4316 36.7949L43.8596 24.6565C44.0091 24.5677 44.1985 24.6754 44.1985 24.8494V36.5705C44.1985 36.6944 44.0981 36.7949 43.9742 36.7949H23.4316ZM22.4357 72.0192V48.9102C22.4357 48.7863 22.3353 48.6859 22.2113 48.6859H13.237C7.40367 48.6859 6.28186 57.4359 13.237 57.4359C14.284 57.3611 16.378 56.7179 16.378 54.7436M33.5603 72.0192V48.9102C33.5603 48.7863 33.6608 48.6859 33.7847 48.6859H42.7591C48.5924 48.6859 49.7142 57.4359 42.7591 57.4359C41.712 57.3611 39.618 56.7179 39.618 54.7436M28.2691 47.1154V72.0192M17.4998 77.1795H39.0383M15.2562 82.7884H41.0575" stroke="white" stroke-width="2.69231"/>
<path d="M106.557 32.6024V33.8976C105.291 33.8976 104.37 34.0895 103.794 34.4733C103.237 34.8571 102.882 35.4232 102.729 36.1716C102.575 36.92 102.499 37.8602 102.499 38.9924V49.2971C100.522 50.4868 98.4114 51.3504 96.1662 51.8877C93.9211 52.425 91.5608 52.6936 89.0853 52.6936C85.2283 52.6936 81.8413 51.926 78.9246 50.3909C76.0078 48.8366 73.7338 46.6969 72.1027 43.9721C70.4716 41.2472 69.6561 38.1097 69.6561 34.5597C69.6561 32.0267 70.1166 29.6376 71.0377 27.3924C71.9588 25.1281 73.2637 23.1324 74.9524 21.4054C76.6602 19.6591 78.6655 18.2871 80.9682 17.2892C83.2901 16.2914 85.8423 15.7925 88.6248 15.7925C90.4478 15.7925 92.0693 15.9844 93.4893 16.3681C94.9093 16.7519 96.0799 17.1357 97.001 17.5195C97.922 17.9033 98.5457 18.0952 98.8719 18.0952C99.3708 18.0952 99.6971 17.7882 99.8506 17.1741C100.023 16.56 100.129 16.0899 100.167 15.7637H101.462L102.412 27.3924H101.117C100.215 24.4757 98.776 22.1633 96.7995 20.4555C94.8421 18.7284 92.4051 17.8649 89.4883 17.8649C86.5331 17.8649 84.1153 18.6133 82.2347 20.1101C80.3734 21.5877 78.9917 23.5354 78.0898 25.9532C77.2071 28.3711 76.7658 30.9904 76.7658 33.8113C76.7658 35.8454 76.996 37.8506 77.4566 39.8272C77.9363 41.8037 78.6847 43.5979 79.7017 45.2098C80.7188 46.8217 82.0428 48.117 83.6739 49.0956C85.305 50.0551 87.2815 50.5348 89.6034 50.5348C90.8508 50.5348 92.0405 50.4005 93.1727 50.1318C94.3048 49.844 95.3699 49.3835 96.3677 48.7502V38.9924C96.3677 37.0735 96.0991 35.759 95.5617 35.049C95.0244 34.339 93.7675 33.9552 91.791 33.8976V32.6024H106.557ZM143.181 42.5616L139.9 51.8589H112.526V50.506C113.984 50.506 115.069 50.3621 115.779 50.0743C116.489 49.7864 116.959 49.2587 117.189 48.4912C117.419 47.7236 117.534 46.6202 117.534 45.181V23.1324C117.534 21.6548 117.429 20.5418 117.218 19.7934C117.007 19.0451 116.546 18.5365 115.836 18.2679C115.145 17.9992 114.042 17.8649 112.526 17.8649V16.5696H140.015L140.418 24.8594H139.122C138.719 23.3435 138.326 22.1537 137.942 21.2902C137.558 20.4075 136.944 19.7839 136.1 19.4193C135.275 19.0355 133.989 18.8436 132.243 18.8436H123.55V32.4009H129.768C131.207 32.4009 132.291 32.2378 133.02 31.9115C133.769 31.5661 134.296 31 134.603 30.2133C134.93 29.4073 135.189 28.3231 135.38 26.9607H136.705V40.0862H135.38C135.189 38.7046 134.939 37.63 134.632 36.8624C134.325 36.0756 133.807 35.5287 133.078 35.2217C132.349 34.8955 131.245 34.7324 129.768 34.7324H123.55V45.5264C123.55 46.8888 123.685 47.9155 123.953 48.6063C124.222 49.2779 125.076 49.6137 126.515 49.6137H131.408C133.462 49.6137 135.064 49.3739 136.215 48.8941C137.367 48.4144 138.336 47.6564 139.122 46.6202C139.909 45.584 140.773 44.2311 141.713 42.5616H143.181ZM186.195 16.5696V17.8649C184.832 17.8649 183.815 17.9896 183.144 18.2391C182.491 18.4694 182.05 18.9299 181.82 19.6207C181.608 20.2924 181.503 21.2806 181.503 22.5855V52.4058H179.891L157.439 24.5716V45.7855C157.439 47.1287 157.564 48.1361 157.814 48.8078C158.063 49.4794 158.533 49.9304 159.224 50.1606C159.934 50.3909 160.98 50.506 162.361 50.506V51.8589H149.984V50.506C151.328 50.506 152.345 50.3813 153.035 50.1318C153.726 49.8824 154.196 49.4218 154.446 48.7502C154.695 48.0786 154.82 47.0903 154.82 45.7855V21.2902C154.206 20.4459 153.669 19.7743 153.208 19.2753C152.748 18.7764 152.229 18.4214 151.654 18.2103C151.097 17.98 150.339 17.8649 149.38 17.8649V16.5696H158.994L178.912 41.3527V22.5855C178.912 21.2806 178.788 20.2924 178.538 19.6207C178.308 18.9299 177.847 18.4694 177.156 18.2391C176.466 17.9896 175.439 17.8649 174.077 17.8649V16.5696H186.195ZM222.934 42.5616L219.652 51.8589H192.278V50.506C193.737 50.506 194.821 50.3621 195.531 50.0743C196.241 49.7864 196.711 49.2587 196.942 48.4912C197.172 47.7236 197.287 46.6202 197.287 45.181V23.1324C197.287 21.6548 197.181 20.5418 196.97 19.7934C196.759 19.0451 196.299 18.5365 195.589 18.2679C194.898 17.9992 193.794 17.8649 192.278 17.8649V16.5696H219.767L220.17 24.8594H218.875C218.472 23.3435 218.079 22.1537 217.695 21.2902C217.311 20.4075 216.697 19.7839 215.853 19.4193C215.027 19.0355 213.742 18.8436 211.996 18.8436H203.303V32.4009H209.52C210.959 32.4009 212.044 32.2378 212.773 31.9115C213.521 31.5661 214.049 31 214.356 30.2133C214.682 29.4073 214.941 28.3231 215.133 26.9607H216.457V40.0862H215.133C214.941 38.7046 214.692 37.63 214.385 36.8624C214.078 36.0756 213.56 35.5287 212.83 35.2217C212.101 34.8955 210.998 34.7324 209.52 34.7324H203.303V45.5264C203.303 46.8888 203.437 47.9155 203.706 48.6063C203.974 49.2779 204.828 49.6137 206.268 49.6137H211.161C213.214 49.6137 214.816 49.3739 215.968 48.8941C217.119 48.4144 218.088 47.6564 218.875 46.6202C219.662 45.584 220.525 44.2311 221.466 42.5616H222.934ZM255.7 42.5041C255.7 44.5765 255.163 46.3803 254.088 47.9155C253.033 49.4314 251.622 50.6116 249.857 51.4559C248.111 52.2811 246.221 52.6936 244.187 52.6936C242.766 52.6936 241.49 52.5209 240.358 52.1755C239.245 51.8301 238.257 51.4847 237.393 51.1393C236.53 50.7939 235.782 50.6212 235.148 50.6212C234.534 50.6212 234.083 50.8418 233.795 51.2832C233.527 51.7054 233.316 52.1755 233.162 52.6936H231.896V40.115H233.22C233.431 41.9955 233.959 43.7226 234.803 45.2961C235.666 46.8696 236.847 48.1361 238.343 49.0956C239.859 50.0359 241.692 50.506 243.841 50.506C244.954 50.506 246.009 50.295 247.007 49.8728C248.024 49.4506 248.85 48.8366 249.483 48.0306C250.135 47.2055 250.461 46.1884 250.461 44.9795C250.461 43.6171 250.01 42.4369 249.109 41.4391C248.226 40.422 247.075 39.4913 245.654 38.647C244.234 37.8027 242.728 36.9679 241.135 36.1428C239.562 35.2985 238.065 34.387 236.645 33.4083C235.244 32.4105 234.093 31.2591 233.191 29.9542C232.289 28.6493 231.838 27.1046 231.838 25.32C231.838 23.3627 232.308 21.674 233.249 20.254C234.208 18.834 235.484 17.7402 237.077 16.9726C238.67 16.1858 240.425 15.7925 242.344 15.7925C243.572 15.7925 244.705 15.9748 245.741 16.3394C246.777 16.6848 247.698 17.0302 248.504 17.3756C249.329 17.721 250.02 17.8937 250.577 17.8937C251.095 17.8937 251.469 17.6634 251.699 17.2029C251.949 16.7423 252.131 16.2722 252.246 15.7925H253.57V28.2847H252.188C251.997 26.3274 251.478 24.5812 250.634 23.046C249.79 21.4917 248.667 20.2636 247.266 19.3617C245.866 18.4598 244.254 18.0088 242.431 18.0088C240.934 18.0088 239.581 18.479 238.372 19.4193C237.163 20.3403 236.559 21.5781 236.559 23.1324C236.559 24.3989 237.019 25.5119 237.94 26.4713C238.861 27.4116 240.051 28.2943 241.51 29.1195C242.968 29.9254 244.503 30.741 246.115 31.5661C247.746 32.3721 249.291 33.274 250.749 34.2718C252.208 35.2697 253.397 36.4402 254.318 37.7835C255.24 39.1075 255.7 40.6811 255.7 42.5041ZM279.803 51.8589H263.684V50.506C265.161 50.506 266.255 50.3717 266.965 50.1031C267.675 49.8344 268.136 49.3451 268.347 48.6351C268.577 47.9059 268.692 46.8601 268.692 45.4976V23.046C268.692 21.6836 268.577 20.6282 268.347 19.8798C268.136 19.1314 267.675 18.6133 266.965 18.3255C266.255 18.0184 265.161 17.8649 263.684 17.8649V16.5696H279.803V17.8649C278.344 17.8649 277.251 18.0184 276.521 18.3255C275.811 18.6133 275.341 19.1314 275.111 19.8798C274.881 20.6282 274.766 21.6836 274.766 23.046V45.4976C274.766 46.8601 274.871 47.9059 275.082 48.6351C275.312 49.3451 275.783 49.8344 276.493 50.1031C277.222 50.3717 278.325 50.506 279.803 50.506V51.8589ZM312.253 42.5041C312.253 44.5765 311.715 46.3803 310.641 47.9155C309.585 49.4314 308.175 50.6116 306.41 51.4559C304.663 52.2811 302.773 52.6936 300.739 52.6936C299.319 52.6936 298.043 52.5209 296.911 52.1755C295.798 51.8301 294.81 51.4847 293.946 51.1393C293.083 50.7939 292.334 50.6212 291.701 50.6212C291.087 50.6212 290.636 50.8418 290.348 51.2832C290.079 51.7054 289.868 52.1755 289.715 52.6936H288.448V40.115H289.772C289.983 41.9955 290.511 43.7226 291.356 45.2961C292.219 46.8696 293.399 48.1361 294.896 49.0956C296.412 50.0359 298.245 50.506 300.394 50.506C301.507 50.506 302.562 50.295 303.56 49.8728C304.577 49.4506 305.402 48.8366 306.035 48.0306C306.688 47.2055 307.014 46.1884 307.014 44.9795C307.014 43.6171 306.563 42.4369 305.661 41.4391C304.778 40.422 303.627 39.4913 302.207 38.647C300.787 37.8027 299.281 36.9679 297.688 36.1428C296.114 35.2985 294.618 34.387 293.198 33.4083C291.797 32.4105 290.646 31.2591 289.744 29.9542C288.842 28.6493 288.391 27.1046 288.391 25.32C288.391 23.3627 288.861 21.674 289.801 20.254C290.761 18.834 292.037 17.7402 293.629 16.9726C295.222 16.1858 296.978 15.7925 298.897 15.7925C300.125 15.7925 301.257 15.9748 302.293 16.3394C303.33 16.6848 304.251 17.0302 305.057 17.3756C305.882 17.721 306.573 17.8937 307.129 17.8937C307.647 17.8937 308.021 17.6634 308.252 17.2029C308.501 16.7423 308.684 16.2722 308.799 15.7925H310.123V28.2847H308.741C308.549 26.3274 308.031 24.5812 307.187 23.046C306.342 21.4917 305.22 20.2636 303.819 19.3617C302.418 18.4598 300.806 18.0088 298.983 18.0088C297.487 18.0088 296.134 18.479 294.925 19.4193C293.716 20.3403 293.111 21.5781 293.111 23.1324C293.111 24.3989 293.572 25.5119 294.493 26.4713C295.414 27.4116 296.604 28.2943 298.062 29.1195C299.521 29.9254 301.056 30.741 302.668 31.5661C304.299 32.3721 305.844 33.274 307.302 34.2718C308.76 35.2697 309.95 36.4402 310.871 37.7835C311.792 39.1075 312.253 40.6811 312.253 42.5041Z" fill="white"/>
<path d="M88.3366 77.7816L88.9774 78.9877C88.5376 79.4401 87.9408 79.7981 87.187 80.062C86.4331 80.3258 85.6416 80.4577 84.8124 80.4577C82.8273 80.4577 81.2128 79.8421 79.9689 78.6108C78.7376 77.367 78.122 75.7211 78.122 73.6731C78.122 71.7257 78.7125 70.1112 79.8935 68.8297C81.0871 67.5356 82.689 66.8885 84.6993 66.8885C86.3829 66.8885 87.721 67.3157 88.7135 68.1701L87.9785 69.3762C87.099 68.7229 86.0123 68.3962 84.7181 68.3962C83.2858 68.3962 82.1111 68.8862 81.1939 69.8662C80.2767 70.8462 79.8181 72.1152 79.8181 73.6731C79.8181 75.2436 80.2893 76.5189 81.2316 77.4989C82.1865 78.4663 83.4303 78.9501 84.9631 78.9501C86.2573 78.9501 87.3817 78.5606 88.3366 77.7816ZM92.9898 73.6731C92.9898 71.7508 93.6243 70.1426 94.8933 68.8485C96.1623 67.5419 97.7705 66.8885 99.7179 66.8885C101.653 66.8885 103.255 67.523 104.524 68.792C105.805 70.061 106.446 71.688 106.446 73.6731C106.446 75.6206 105.805 77.2413 104.524 78.5354C103.242 79.817 101.64 80.4577 99.7179 80.4577C97.783 80.4577 96.1748 79.8233 94.8933 78.5543C93.6243 77.2853 92.9898 75.6583 92.9898 73.6731ZM94.686 73.6731C94.686 75.1683 95.1697 76.4247 96.1372 77.4424C97.1046 78.4475 98.2982 78.9501 99.7179 78.9501C101.2 78.9501 102.407 78.4475 103.336 77.4424C104.279 76.4372 104.75 75.1808 104.75 73.6731C104.75 72.1529 104.266 70.8965 103.299 69.9039C102.331 68.8988 101.138 68.3962 99.7179 68.3962C98.273 68.3962 97.0732 68.8925 96.1183 69.8851C95.1634 70.8776 94.686 72.1403 94.686 73.6731ZM123.416 80.2693H122.135L113.899 69.9039V80.2693H112.391V67.077H113.673L121.908 77.4801V67.077H123.416V80.2693ZM136.117 76.8958C136.117 76.4561 135.998 76.0729 135.759 75.7462C135.52 75.4195 135.212 75.1557 134.835 74.9547C134.458 74.7411 134.038 74.5401 133.573 74.3516C133.12 74.1631 132.662 73.9621 132.197 73.7485C131.745 73.5224 131.33 73.2711 130.953 72.9947C130.576 72.7183 130.268 72.3539 130.03 71.9016C129.791 71.4493 129.672 70.9279 129.672 70.3374C129.672 69.3574 130.03 68.5407 130.746 67.8874C131.462 67.2215 132.429 66.8885 133.648 66.8885C134.402 66.8885 135.099 67.0142 135.74 67.2654C136.393 67.5167 136.908 67.8497 137.285 68.2643L136.418 69.4704C135.702 68.7543 134.81 68.3962 133.742 68.3962C133.014 68.3962 132.436 68.5721 132.008 68.9239C131.581 69.2757 131.368 69.7469 131.368 70.3374C131.368 70.7771 131.487 71.1603 131.726 71.487C131.964 71.8136 132.272 72.0775 132.649 72.2785C133.026 72.4795 133.441 72.6743 133.893 72.8627C134.358 73.0386 134.817 73.2334 135.269 73.447C135.734 73.6606 136.155 73.9056 136.532 74.182C136.908 74.4458 137.216 74.8102 137.455 75.2751C137.694 75.7399 137.813 76.2739 137.813 76.877C137.813 77.9449 137.398 78.8119 136.569 79.4777C135.753 80.1311 134.735 80.4577 133.516 80.4577C132.662 80.4577 131.833 80.2819 131.028 79.9301C130.224 79.5657 129.665 79.082 129.351 78.4789L130.275 77.3858C130.652 77.8758 131.142 78.259 131.745 78.5354C132.348 78.8119 132.944 78.9501 133.535 78.9501C134.264 78.9501 134.873 78.7679 135.363 78.4035C135.866 78.0392 136.117 77.5366 136.117 76.8958ZM141.956 68.5847V67.077H152.793V68.5847H148.175V80.2693H146.573V68.5847H141.956ZM159.572 80.2693H157.97V67.077C158.246 67.077 158.881 67.0707 159.874 67.0581C160.866 67.0456 161.413 67.0393 161.513 67.0393C164.642 67.0393 166.206 68.346 166.206 70.9593C166.206 71.9267 165.923 72.7434 165.358 73.4093C164.805 74.0626 164.133 74.4898 163.341 74.6908L167.732 80.2693H165.772L161.72 74.9924H159.572V80.2693ZM161.419 68.547C161.017 68.547 160.401 68.5595 159.572 68.5847V73.4847H161.513C162.317 73.4847 163.015 73.2585 163.605 72.8062C164.208 72.3413 164.51 71.732 164.51 70.9781C164.51 69.3574 163.479 68.547 161.419 68.547ZM183.48 67.077V74.7662C183.48 76.6634 182.996 78.0831 182.029 79.0254C181.061 79.9677 179.842 80.4389 178.372 80.4389C176.727 80.4389 175.401 79.9426 174.396 78.9501C173.403 77.9449 172.907 76.5063 172.907 74.6343V67.077H174.509V74.3327C174.509 75.7776 174.842 76.9084 175.508 77.7251C176.186 78.5292 177.141 78.9312 178.372 78.9312C179.478 78.9312 180.339 78.5543 180.954 77.8004C181.57 77.034 181.878 75.9158 181.878 74.4458V67.077H183.48ZM199.442 77.7816L200.083 78.9877C199.643 79.4401 199.046 79.7981 198.292 80.062C197.539 80.3258 196.747 80.4577 195.918 80.4577C193.933 80.4577 192.318 79.8421 191.074 78.6108C189.843 77.367 189.227 75.7211 189.227 73.6731C189.227 71.7257 189.818 70.1112 190.999 68.8297C192.193 67.5356 193.794 66.8885 195.805 66.8885C197.488 66.8885 198.826 67.3157 199.819 68.1701L199.084 69.3762C198.204 68.7229 197.118 68.3962 195.824 68.3962C194.391 68.3962 193.217 68.8862 192.299 69.8662C191.382 70.8462 190.924 72.1152 190.924 73.6731C190.924 75.2436 191.395 76.5189 192.337 77.4989C193.292 78.4663 194.536 78.9501 196.069 78.9501C197.363 78.9501 198.487 78.5606 199.442 77.7816ZM203.857 68.5847V67.077H214.693V68.5847H210.076V80.2693H208.474V68.5847H203.857ZM220.248 80.2693V67.077H221.85V80.2693H220.248ZM228.162 73.6731C228.162 71.7508 228.797 70.1426 230.066 68.8485C231.335 67.5419 232.943 66.8885 234.89 66.8885C236.825 66.8885 238.427 67.523 239.696 68.792C240.978 70.061 241.619 71.688 241.619 73.6731C241.619 75.6206 240.978 77.2413 239.696 78.5354C238.415 79.817 236.813 80.4577 234.89 80.4577C232.956 80.4577 231.347 79.8233 230.066 78.5543C228.797 77.2853 228.162 75.6583 228.162 73.6731ZM229.859 73.6731C229.859 75.1683 230.342 76.4247 231.31 77.4424C232.277 78.4475 233.471 78.9501 234.89 78.9501C236.373 78.9501 237.579 78.4475 238.509 77.4424C239.451 76.4372 239.922 75.1808 239.922 73.6731C239.922 72.1529 239.439 70.8965 238.471 69.9039C237.504 68.8988 236.31 68.3962 234.89 68.3962C233.446 68.3962 232.246 68.8925 231.291 69.8851C230.336 70.8776 229.859 72.1403 229.859 73.6731ZM258.589 80.2693H257.307L249.071 69.9039V80.2693H247.564V67.077H248.845L257.081 77.4801V67.077H258.589V80.2693Z" fill="white"/>
</svg>
