<svg width="753" height="1239" viewBox="0 0 753 1239" fill="none" xmlns="http://www.w3.org/2000/svg">
<g style="mix-blend-mode:overlay">
<path d="M697.105 16L23.7073 411.475C22.1205 412.407 21.7228 414.526 22.8638 415.97L81.2855 489.895C81.8606 490.623 82.7371 491.048 83.6645 491.048H106.792M697.105 491.048H106.792M106.792 491.048L293.065 380.476M293.065 380.476L667.929 157.957C669.95 156.757 672.509 158.214 672.509 160.564V377.444C672.509 379.119 671.151 380.476 669.477 380.476H293.065ZM274.868 1023.43V600.556C274.868 598.881 273.51 597.524 271.835 597.524H106.792C0.208363 597.524 -20.2888 757.238 106.792 757.238C125.923 755.873 164.184 744.133 164.184 708.095M478.132 1023.43V600.556C478.132 598.881 479.49 597.524 481.165 597.524H646.208C752.792 597.524 773.289 757.238 646.208 757.238C627.077 755.873 588.816 744.133 588.816 708.095M381.452 568.857V1023.43M184.681 1117.62H578.223M143.687 1220H615.118" stroke="white" stroke-width="36.3867"/>
</g>
</svg>
